<svg width="32" height="32" viewBox="0 0 32 32" fill="none" xmlns="http://www.w3.org/2000/svg">
<g id="TiktokLogo">
<path id="Vector" d="M21 12.75C23.0387 14.2174 25.4881 15.0047 28 15V10C26.1435 10 24.363 9.2625 23.0503 7.94975C21.7375 6.63699 21 4.85652 21 3H16V19.5C15.9997 20.1263 15.8314 20.741 15.5126 21.2801C15.1938 21.8192 14.7362 22.2629 14.1875 22.5648C13.6389 22.8668 13.0192 23.016 12.3932 22.9969C11.7672 22.9778 11.1578 22.7911 10.6285 22.4562C10.0993 22.1213 9.66962 21.6505 9.3843 21.093C9.09898 20.5355 8.96849 19.9116 9.00643 19.2865C9.04437 18.6613 9.24936 18.0578 9.60002 17.5389C9.95067 17.02 10.4341 16.6047 11 16.3363V11C7.02125 11.7088 4 15.3175 4 19.5C4 21.7543 4.89553 23.9163 6.48959 25.5104C8.08365 27.1045 10.2457 28 12.5 28C14.7543 28 16.9163 27.1045 18.5104 25.5104C20.1045 23.9163 21 21.7543 21 19.5V12.75Z" stroke="#CCCCCC" stroke-width="2" stroke-linecap="round" stroke-linejoin="round"/>
</g>
</svg>
