<svg width="32" height="32" viewBox="0 0 32 32" fill="none" xmlns="http://www.w3.org/2000/svg">
<g id="YoutubeLogo">
<path id="Vector" d="M20 16L14 12V20L20 16Z" stroke="#CCCCCC" stroke-width="2" stroke-linecap="round" stroke-linejoin="round"/>
<path id="Vector_2" d="M3 16C3 19.7387 3.38375 21.9312 3.67625 23.0587C3.7536 23.3654 3.90258 23.6494 4.11096 23.8873C4.31935 24.1253 4.58119 24.3104 4.875 24.4275C9.065 26.0437 16 26 16 26C16 26 22.935 26.0437 27.125 24.4275C27.4197 24.311 27.6826 24.1262 27.8919 23.8882C28.1012 23.6503 28.2509 23.3659 28.3288 23.0587C28.6213 21.9337 29.005 19.7387 29.005 16C29.005 12.2612 28.6213 10.0687 28.3288 8.94124C28.2518 8.6329 28.1024 8.34734 27.8931 8.10822C27.6838 7.8691 27.4205 7.68331 27.125 7.56624C22.935 5.95624 16 5.99999 16 5.99999C16 5.99999 9.065 5.95624 4.875 7.57249C4.57954 7.68956 4.31623 7.87535 4.1069 8.11447C3.89756 8.35359 3.74822 8.63915 3.67125 8.94749C3.38375 10.0675 3 12.2612 3 16Z" stroke="#CCCCCC" stroke-width="2" stroke-linecap="round" stroke-linejoin="round"/>
</g>
</svg>
